<svg xmlns="http://www.w3.org/2000/svg" version="1.1" xmlns:xlink="http://www.w3.org/1999/xlink" xmlns:svgjs="http://svgjs.dev/svgjs" width="1500" height="246" viewBox="0 0 1500 246"><g transform="matrix(1,0,0,1,-0.9090909090909918,-0.5660625680876166)"><svg viewBox="0 0 396 65" data-background-color="#ffffff" preserveAspectRatio="xMidYMid meet" height="246" width="1500" xmlns="http://www.w3.org/2000/svg" xmlns:xlink="http://www.w3.org/1999/xlink"><g id="tight-bounds" transform="matrix(1,0,0,1,0.2400000000000091,0.14956937774672951)"><svg viewBox="0 0 395.52 64.70086124450657" height="64.70086124450657" width="395.52"><g><svg viewBox="0 0 495.7536336538857 81.09750976562499" height="64.70086124450657" width="395.52"><g><svg viewBox="0 0 495.7536336538857 81.09750976562499" height="81.09750976562499" width="495.7536336538857"><g id="textblocktransform"><svg viewBox="0 0 495.7536336538857 81.09750976562499" height="81.09750976562499" width="495.7536336538857" id="textblock"><g><svg viewBox="0 0 495.7536336538857 81.09750976562499" height="81.09750976562499" width="495.7536336538857"><g><svg><g></g><g></g></svg></g><g><svg><g></g><g><svg></svg></g></svg></g><g id="text-0"><svg viewBox="0 0 495.7536336538857 81.09750976562499" height="81.09750976562499" width="495.7536336538857"><g><svg xmlns="http://www.w3.org/2000/svg" xmlns:xlink="http://www.w3.org/1999/xlink" version="1.1" x="0" y="0" viewBox="2.7 2.7 94.61274041096252 94.62500000000001" enable-background="new 0 0 100 100" xml:space="preserve" height="81.09750976562499" width="81.08700279451068" class="icon-dxe-0" data-fill-palette-color="accent" id="dxe-0"><g fill="#bb84e8" data-fill-palette-color="accent"><path d="M14 74.7L18.4 70.4C15.6 66.2 13.8 61.6 12.9 56.9H6.7C4.5 56.9 2.7 55.1 2.7 52.9V46.2C2.7 44 4.5 42.2 6.7 42.2H12.9C13.9 37.5 15.7 32.9 18.5 28.7L14.2 24.3C12.6 22.7 12.7 20.2 14.2 18.7L19 14C20.6 12.4 23.1 12.5 24.6 14L28.9 18.4C33.1 15.6 37.7 13.8 42.4 12.9V6.7C42.4 4.5 44.2 2.7 46.4 2.7H53.1C55.3 2.7 57.1 4.5 57.1 6.7V12.9C61.8 13.9 66.4 15.7 70.6 18.5L75 14.2C76.6 12.6 79.1 12.7 80.6 14.2L85.3 19C86.9 20.6 86.8 23.1 85.3 24.6L80.9 28.9C83.7 33.1 85.5 37.7 86.4 42.4H92.6C94.8 42.4 96.6 44.2 96.6 46.4V53.1C96.6 55.3 94.8 57.1 92.6 57.1H86.4C85.6 61.2 84.1 65.2 81.9 68.9L75.8 62.8C78.1 58.2 79.2 52.9 78.8 47.7 78.3 40.7 75.3 34 70.3 29 64.8 23.5 57.4 20.4 49.6 20.4S34.5 23.4 28.9 29C23.4 34.5 20.3 41.9 20.3 49.7S23.3 64.8 28.9 70.4C34.4 75.9 41.8 79 49.6 79 54.2 79 58.7 77.9 62.7 75.9L68.8 82C65 84.2 61 85.8 56.8 86.6V92.8C56.8 95 55 96.8 52.8 96.8H46.1C43.9 96.8 42.1 95 42.1 92.8V86.6C37.4 85.6 32.8 83.8 28.6 81L24.2 85.3C22.6 86.9 20.1 86.8 18.6 85.3L13.9 80.5C12.4 78.7 12.4 76.2 14 74.7M95.9 95.9C94 97.8 90.9 97.8 88.9 95.9L64.9 71.9 65.8 71 64.4 69.6C54.6 76.9 40.7 76.1 31.8 67.2 22 57.4 22 41.6 31.8 31.9 41.6 22.1 57.4 22.1 67.1 31.9 76 40.8 76.8 54.7 69.5 64.5L70.9 65.9 71.8 65 95.8 89C97.8 90.9 97.8 94 95.9 95.9M61.8 37.3C55 30.5 44.1 30.5 37.3 37.3S30.5 55 37.3 61.8 55 68.6 61.8 61.8C68.5 55 68.5 44.1 61.8 37.3" fill="#bb84e8" data-fill-palette-color="accent"></path></g></svg></g><g transform="matrix(1,0,0,1,100.23363365388568,4.308347848982272)"><svg width="395.52" viewBox="3.91 -38.38 273.47999999999996 50.120000000000005" height="72.48081406766045" data-palette-color="#35185a"><path d="M11.79-31.1L11.79-1.29Q11.79-0.56 11.49-0.28 11.18 0 10.45 0L10.45 0 5.25 0Q4.52 0 4.21-0.28 3.91-0.56 3.91-1.29L3.91-1.29 3.91-31.1Q3.91-31.81 4.15-32.18L4.15-32.18Q5.25-33.79 7.23-35.57L7.23-35.57Q7.59-35.86 7.86-35.86L7.86-35.86Q8.15-35.86 8.47-35.57L8.47-35.57Q9.55-34.64 10.28-33.8 11.01-32.96 11.55-32.18L11.55-32.18Q11.79-31.79 11.79-31.1L11.79-31.1ZM43.16-15.55L43.16-15.55 43.16-1.29Q43.16-0.56 42.86-0.28 42.55 0 41.82 0L41.82 0 36.79 0Q36.06 0 35.75-0.28 35.45-0.56 35.45-1.29L35.45-1.29 35.45-14.28Q35.45-16.94 34.32-18.16 33.2-19.38 31.27-19.38L31.27-19.38Q29.34-19.38 28.31-18.55 27.27-17.72 26.71-16.46L26.71-16.46 26.71-1.29Q26.71-0.56 26.4-0.28 26.1 0 25.36 0L25.36 0 20.33 0Q19.6 0 19.3-0.28 18.99-0.56 18.99-1.29L18.99-1.29 18.99-21.75Q18.99-22.34 19.24-22.66L19.24-22.66Q19.75-23.34 20.47-24.05 21.19-24.76 22.24-25.56L22.24-25.56Q22.56-25.81 22.85-25.81L22.85-25.81Q23.12-25.81 23.46-25.56L23.46-25.56Q24.48-24.76 25.22-24.02 25.95-23.29 26.51-22.51L26.51-22.51 26.63-22.51Q27.05-23.05 27.88-23.77 28.71-24.49 30.21-25.05 31.71-25.61 34.06-25.61L34.06-25.61Q36.35-25.61 38.43-24.68 40.5-23.75 41.83-21.56 43.16-19.36 43.16-15.55ZM56.71 0.61L56.71 0.61Q54.1 0.61 52.38 0.17 50.65-0.27 49.62-0.89 48.58-1.51 47.99-2.03L47.99-2.03Q47.55-2.44 47.9-2.95L47.9-2.95 50.39-6.64Q50.92-7.42 51.61-6.74L51.61-6.74Q52.31-6.05 53.52-5.41 54.73-4.76 56.54-4.76L56.54-4.76Q58.15-4.76 59.19-5.31 60.22-5.86 60.22-6.91L60.22-6.91Q60.22-7.64 59.76-8.11 59.3-8.57 58.12-9.06 56.95-9.55 54.85-10.3L54.85-10.3Q51.75-11.43 50.17-13.01 48.58-14.6 48.58-17.65L48.58-17.65Q48.58-20.46 50.13-22.22 51.68-23.97 54.11-24.79 56.54-25.61 59.17-25.61L59.17-25.61Q62.52-25.61 63.87-24.99 65.23-24.37 65.62-24.02L65.62-24.02Q65.99-23.71 66.13-23.29L66.13-23.29Q66.45-22.34 66.62-20.78L66.62-20.78Q66.72-19.87 66.16-19.58L66.16-19.58Q65.86-19.41 65.23-19.21 64.59-19.02 63.96-18.87 63.33-18.73 63.01-18.73L63.01-18.73Q62.91-18.73 62.8-18.79 62.69-18.85 62.42-19.09L62.42-19.09Q62.1-19.41 61.34-19.82 60.57-20.24 59.22-20.24L59.22-20.24Q57.91-20.24 57.01-19.81 56.12-19.38 56.12-18.31L56.12-18.31Q56.12-17.14 57.26-16.55 58.39-15.97 61.01-15.04L61.01-15.04Q63.06-14.33 64.58-13.49 66.11-12.65 66.94-11.29 67.77-9.94 67.77-7.64L67.77-7.64Q67.77-4.66 66.14-2.84 64.52-1.03 61.99-0.21 59.47 0.61 56.71 0.61ZM71.4-33.2L71.4-33.2Q71.4-33.52 71.6-33.76 71.79-34.01 72.11-34.4L72.11-34.4Q72.8-35.18 73.7-36.05 74.6-36.91 75.53-37.72L75.53-37.72Q76.12-38.18 76.41-38.18L76.41-38.18Q76.7-38.18 77.31-37.72L77.31-37.72Q79.29-36.01 80.68-34.4L80.68-34.4Q81-34.03 81.21-33.78 81.41-33.52 81.41-33.2L81.41-33.2Q81.41-32.89 81.21-32.64 81-32.4 80.66-31.98L80.66-31.98Q80-31.23 79.12-30.36 78.24-29.49 77.31-28.71L77.31-28.71Q76.97-28.42 76.77-28.33 76.58-28.25 76.41-28.25L76.41-28.25Q76.24-28.25 76.05-28.33 75.87-28.42 75.48-28.71L75.48-28.71Q74.5-29.49 73.65-30.36 72.8-31.23 72.11-32.03L72.11-32.03Q71.79-32.42 71.6-32.65 71.4-32.89 71.4-33.2ZM80.24-23.71L80.24-1.29Q80.24-0.56 79.94-0.28 79.63 0 78.9 0L78.9 0 73.87 0Q73.14 0 72.83-0.28 72.53-0.56 72.53-1.29L72.53-1.29 72.53-23.71Q72.53-24.44 72.83-24.72 73.14-25 73.87-25L73.87-25 78.9-25Q79.63-25 79.94-24.72 80.24-24.44 80.24-23.71L80.24-23.71ZM111.05-22.66L111.05-22.66 111.05-2.86Q111.05 4.27 106.98 8.01 102.92 11.74 95.84 11.74L95.84 11.74Q92.91 11.74 91.2 11.32 89.49 10.89 88.61 10.5L88.61 10.5Q88.05 10.23 87.88 9.94L87.88 9.94Q87.64 9.55 87.33 8.79 87.03 8.03 86.76 7.13L86.76 7.13Q86.68 6.79 86.73 6.62L86.73 6.62Q86.83 6.37 87.1 6.1L87.1 6.1Q87.54 5.66 88.36 5.08 89.17 4.49 89.61 4.32L89.61 4.32Q90.08 4.15 90.47 4.37L90.47 4.37Q91.1 4.71 92.29 5.14 93.47 5.57 95.62 5.57L95.62 5.57Q99.04 5.57 101.19 3.81 103.33 2.05 103.33-1.61L103.33-1.61 103.33-2.49 103.24-2.49Q102.7-1.81 101.85-1.1 100.99-0.39 99.64 0.1 98.28 0.59 96.16 0.59L96.16 0.59Q92.47 0.59 90.11-1.01 87.76-2.61 86.65-5.42 85.54-8.23 85.54-11.82L85.54-11.82Q85.54-15.75 86.83-18.87 88.12-22 91.18-23.82 94.23-25.63 99.53-25.63L99.53-25.63Q102.7-25.63 104.86-25.17 107.02-24.71 108.49-24.02 109.95-23.34 111.05-22.66ZM99.26-19.73L99.26-19.73Q96.43-19.73 94.94-17.82 93.45-15.92 93.45-11.91L93.45-11.91Q93.45-5.64 98.62-5.64L98.62-5.64Q100.65-5.64 101.72-6.47 102.8-7.3 103.33-8.57L103.33-8.57 103.33-18.65Q102.8-19.04 101.82-19.38 100.84-19.73 99.26-19.73ZM125.35-16.46L125.35-1.29Q125.35-0.56 125.05-0.28 124.74 0 124.01 0L124.01 0 118.98 0Q118.25 0 117.94-0.28 117.64-0.56 117.64-1.29L117.64-1.29 117.64-34.33Q117.64-34.91 117.88-35.23L117.88-35.23Q118.91-36.57 120.89-38.13L120.89-38.13Q121.23-38.38 121.5-38.38L121.5-38.38Q121.81-38.38 122.11-38.13L122.11-38.13Q123.16-37.33 123.88-36.62 124.6-35.91 125.11-35.23L125.11-35.23Q125.35-34.91 125.35-34.33L125.35-34.33 125.35-22.49 125.45-22.49Q125.99-23.19 126.84-23.91 127.7-24.63 129.13-25.12 130.55-25.61 132.78-25.61L132.78-25.61Q135.02-25.61 137.1-24.68 139.17-23.75 140.49-21.56 141.81-19.36 141.81-15.55L141.81-15.55 141.81-1.29Q141.81-0.56 141.5-0.28 141.2 0 140.47 0L140.47 0 135.44 0Q134.7 0 134.4-0.28 134.09-0.56 134.09-1.29L134.09-1.29 134.09-14.21Q134.09-16.92 132.97-18.15 131.85-19.38 129.92-19.38L129.92-19.38Q128.01-19.38 126.97-18.55 125.92-17.72 125.35-16.46L125.35-16.46ZM158.29 0.61L158.29 0.61Q150.13 0.61 150.13-7.86L150.13-7.86 150.13-19.31 147.37-19.31Q146.64-19.31 146.36-19.62 146.08-19.92 146.08-20.65L146.08-20.65 146.08-23.66Q146.08-24.39 146.36-24.69 146.64-25 147.37-25L147.37-25 150.13-25 150.13-28.93Q150.13-29.52 150.38-29.83L150.38-29.83Q151.4-31.18 153.38-32.74L153.38-32.74Q153.72-32.98 153.99-32.98L153.99-32.98Q154.28-32.98 154.57-32.74L154.57-32.74Q155.62-31.93 156.34-31.23 157.07-30.52 157.58-29.83L157.58-29.83Q157.82-29.52 157.82-28.93L157.82-28.93 157.82-25 162.14-25Q162.88-25 163.16-24.69 163.44-24.39 163.44-23.66L163.44-23.66 163.44-20.65Q163.44-19.92 163.16-19.62 162.88-19.31 162.14-19.31L162.14-19.31 157.82-19.31 157.82-9.2Q157.82-5.3 160.65-5.3L160.65-5.3Q161.09-5.3 161.46-5.38 161.83-5.47 162.09-5.57L162.09-5.57Q162.61-5.76 162.81-5.71 163.02-5.66 163.19-5.18L163.19-5.18 164.61-1.39Q164.83-0.78 164.32-0.51L164.32-0.51Q163.95-0.34 162.55 0.13 161.14 0.61 158.29 0.61ZM177.18-25.56L177.18-25.56 177.18-20 185.85-20Q186.43-20 186.73-19.8L186.73-19.8Q187.36-19.36 188.04-18.75 188.73-18.14 189.48-17.29L189.48-17.29Q189.73-16.97 189.73-16.77L189.73-16.77Q189.73-16.55 189.48-16.28L189.48-16.28Q188.73-15.43 188.04-14.82 187.36-14.21 186.73-13.77L186.73-13.77Q186.38-13.57 185.85-13.57L185.85-13.57 177.18-13.57 177.18-1.29Q177.18-0.56 176.87-0.28 176.57 0 175.84 0L175.84 0 170.64 0Q169.9 0 169.6-0.28 169.29-0.56 169.29-1.29L169.29-1.29 169.29-28.47Q169.29-30.91 169.75-32.34 170.2-33.76 171.5-34.39 172.81-35.01 175.32-35.01L175.32-35.01 186.85-35.01Q187.43-35.01 187.73-34.81L187.73-34.81Q188.36-34.38 189.05-33.76 189.73-33.15 190.49-32.3L190.49-32.3Q190.73-31.98 190.73-31.79L190.73-31.79Q190.73-31.57 190.49-31.3L190.49-31.3Q189.73-30.44 189.05-29.83 188.36-29.22 187.73-28.78L187.73-28.78Q187.38-28.59 186.85-28.59L186.85-28.59 179.96-28.59Q178.35-28.59 177.77-27.91 177.18-27.22 177.18-25.56ZM203.42-1.83L198.32 0.51Q197.81 0.73 197.59 0.73L197.59 0.73Q197.37 0.73 197.12 0.56L197.12 0.56Q196.56 0.17 195.84-1.35 195.12-2.88 195.12-6.05L195.12-6.05 195.12-34.33Q195.12-34.91 195.37-35.23L195.37-35.23Q196.39-36.57 198.37-38.13L198.37-38.13Q198.71-38.38 198.98-38.38L198.98-38.38Q199.3-38.38 199.59-38.13L199.59-38.13Q200.64-37.33 201.36-36.62 202.08-35.91 202.59-35.23L202.59-35.23Q202.84-34.91 202.84-34.33L202.84-34.33 202.84-7.54Q202.84-5.93 203.11-4.8 203.37-3.66 203.74-2.98L203.74-2.98Q204.15-2.17 203.42-1.83L203.42-1.83ZM221.51 0.61L221.51 0.61Q215.36 0.61 211.77-2.66 208.18-5.93 208.18-12.4L208.18-12.4Q208.18-19.04 211.9-22.33 215.63-25.61 221.85-25.61L221.85-25.61Q227.86-25.61 231.47-22.38 235.08-19.14 235.08-12.84L235.08-12.84Q235.08-6.27 231.47-2.83 227.86 0.61 221.51 0.61ZM221.75-5.3L221.75-5.3Q224.44-5.3 225.81-6.97 227.17-8.64 227.17-12.7L227.17-12.7Q227.17-16.55 225.8-18.13 224.42-19.7 221.71-19.7L221.71-19.7Q219.09-19.7 217.59-18.01 216.09-16.31 216.09-12.5L216.09-12.5Q216.09-8.52 217.52-6.91 218.95-5.3 221.75-5.3ZM244.7-1.78L244.7-1.78Q243.99-2.88 243.19-4.85 242.38-6.81 241.6-9.22 240.82-11.62 240.17-14.03 239.53-16.43 239.14-18.44 238.74-20.46 238.74-21.61L238.74-21.61Q238.74-22.09 239.01-22.41L239.01-22.41Q240.14-23.8 242.21-25.32L242.21-25.32Q242.58-25.56 242.87-25.56L242.87-25.56Q243.19-25.56 243.53-25.32L243.53-25.32Q244.65-24.51 245.42-23.8 246.19-23.1 246.73-22.41L246.73-22.41Q247-22.09 247-21.51L247-21.51 247-21.63Q247-20.12 247.18-18.14 247.36-16.16 247.7-14.06 248.05-11.96 248.52-10.06 249-8.15 249.58-6.79L249.58-6.79 249.73-6.79Q250.37-8.15 251.07-10.35 251.78-12.55 252.43-15 253.08-17.46 253.59-19.63 254.1-21.8 254.32-23.07L254.32-23.07Q254.49-24.02 255.09-24.34 255.69-24.66 256.76-24.66L256.76-24.66 259.59-24.66Q260.81-24.66 261.34-24.29 261.86-23.93 261.99-23.07L261.99-23.07Q262.18-21.75 262.69-19.52 263.21-17.29 263.85-14.79 264.5-12.3 265.16-10.13 265.82-7.96 266.28-6.79L266.28-6.79 266.45-6.79Q267.19-8.4 267.85-10.95 268.51-13.5 268.92-16.33 269.34-19.17 269.34-21.61L269.34-21.61 269.34-21.51Q269.34-22.09 269.58-22.41L269.58-22.41Q270.14-23.1 270.9-23.8 271.65-24.51 272.73-25.32L272.73-25.32Q273.07-25.56 273.36-25.56L273.36-25.56Q273.71-25.56 274-25.32L274-25.32Q275.1-24.51 275.85-23.8 276.61-23.1 277.15-22.41L277.15-22.41Q277.39-22.09 277.39-21.56L277.39-21.56Q277.37-20.36 276.93-18.37 276.49-16.38 275.77-14.01 275.05-11.65 274.18-9.28 273.31-6.91 272.42-4.93 271.53-2.95 270.78-1.78L270.78-1.78Q270.29-1.03 269.92-0.63 269.56-0.24 269.03-0.12 268.51 0 267.48 0L267.48 0 264.72 0Q263.57 0 262.93-0.33 262.28-0.66 261.72-1.78L261.72-1.78Q261.38-2.44 260.89-3.99 260.4-5.54 259.89-7.39 259.37-9.23 258.98-10.84 258.59-12.45 258.47-13.21L258.47-13.21Q258.35-13.94 258.21-14.99 258.08-16.04 258.03-16.65L258.03-16.65 257.91-16.65Q257.89-16.04 257.75-15 257.62-13.96 257.47-13.18L257.47-13.18Q257.32-12.5 256.93-11.07 256.54-9.64 255.99-7.92 255.44-6.2 254.85-4.57 254.25-2.93 253.71-1.78L253.71-1.78Q253.17-0.66 252.48-0.33 251.78 0 250.27 0L250.27 0 247.44 0Q246.24 0 245.81-0.37 245.39-0.73 244.7-1.78ZM238.74-21.51L238.74-21.66 238.74-21.61Q238.74-21.56 238.74-21.51L238.74-21.51ZM277.39-21.61L277.39-21.61 277.39-21.51 277.39-21.56Q277.39-21.58 277.39-21.61Z" opacity="1" transform="matrix(1,0,0,1,0,0)" fill="#35185a" class="wordmark-text-0" data-fill-palette-color="primary"></path></svg></g></svg></g></svg></g></svg></g></svg></g></svg></g><defs></defs></svg><rect width="395.52" height="64.70086124450657" fill="none" stroke="none" visibility="hidden"></rect></g></svg></g></svg>